<?xml version="1.0" standalone="no"?>
<!DOCTYPE svg PUBLIC "-//W3C//DTD SVG 20010904//EN"
 "http://www.w3.org/TR/2001/REC-SVG-20010904/DTD/svg10.dtd">
<svg version="1.0" xmlns="http://www.w3.org/2000/svg"
 width="1014.000000pt" height="1274.000000pt" viewBox="0 0 1014.000000 1274.000000"
 preserveAspectRatio="xMidYMid meet">

<g transform="translate(0.000000,1274.000000) scale(0.100000,-0.100000)"
fill="#000000" stroke="none">
<path d="M5029 10035 c-273 -38 -616 -161 -829 -298 -410 -263 -745 -665 -918
-1102 -48 -121 -61 -170 -26 -95 122 256 337 527 558 703 85 68 108 84 212
149 59 38 188 101 271 133 l72 28 20 -24 c22 -27 37 -20 43 20 3 22 13 27 93
48 320 81 676 66 1001 -42 472 -157 878 -518 1119 -994 86 -171 169 -448 200
-668 22 -154 17 -507 -9 -648 -48 -265 -152 -551 -264 -730 -27 -43 -32 -47
-38 -30 -16 44 -49 77 -102 104 -109 55 -150 62 -401 71 -441 17 -551 37 -672
122 -117 83 -255 136 -282 109 -11 -11 -12 -11 68 -30 63 -15 136 -52 202
-102 111 -83 214 -104 595 -119 289 -12 361 -22 459 -66 59 -27 109 -72 109
-99 0 -7 6 -15 13 -18 26 -9 -157 -246 -282 -365 -240 -229 -512 -386 -807
-467 -150 -41 -250 -56 -419 -62 -321 -11 -584 47 -875 194 -114 57 -316 185
-350 222 -3 3 -39 38 -79 76 -100 96 -74 52 44 -73 859 -909 2232 -919 3100
-21 592 613 818 1495 601 2352 -125 492 -426 966 -811 1272 -296 236 -669 396
-1047 450 -127 18 -435 18 -569 0z"/>
<path d="M4816 9551 c-10 -16 6 -42 23 -39 9 2 17 13 19 26 3 16 -2 22 -17 22
-11 0 -22 -4 -25 -9z"/>
<path d="M4612 9488 c2 -15 10 -23 23 -23 30 0 27 39 -3 43 -20 3 -23 0 -20
-20z"/>
<path d="M4428 9375 l3 -95 195 0 194 0 0 96 c0 106 3 103 -68 46 -45 -37 -53
-37 -104 0 -14 10 -22 8 -47 -10 -17 -12 -35 -22 -41 -22 -5 0 -37 18 -69 40
-32 22 -60 40 -62 40 -2 0 -3 -43 -1 -95z"/>
<path d="M4503 9236 c-188 -43 -264 -175 -262 -450 1 -114 -2 -131 -24 -178
-31 -66 -62 -98 -146 -152 -80 -52 -126 -102 -159 -175 -20 -46 -26 -80 -32
-188 -17 -271 -100 -480 -281 -698 -56 -68 -137 -145 -185 -175 -13 -8 -24
-20 -24 -26 0 -6 -23 -14 -51 -18 -105 -14 -217 -71 -316 -160 -30 -27 -44
-47 -39 -55 6 -8 22 1 56 33 180 168 382 202 588 97 95 -48 256 -98 357 -112
191 -25 391 22 535 125 134 97 358 99 546 5 88 -43 98 -43 179 -9 22 10 78 48
125 85 225 180 388 186 523 19 53 -66 68 -108 68 -194 1 -74 -28 -130 -88
-176 -101 -77 -233 -97 -368 -56 -109 33 -141 75 -111 145 8 20 11 39 6 42
-16 10 -41 -42 -42 -86 0 -38 4 -48 36 -75 65 -56 236 -93 323 -70 170 46 259
130 270 255 7 79 -9 141 -57 210 -103 153 -255 191 -423 108 -39 -20 -112 -68
-160 -106 -59 -47 -106 -76 -142 -87 l-54 -17 -58 30 c-32 17 -83 38 -113 48
-81 26 -223 101 -261 139 -43 41 -177 281 -240 429 -87 205 -126 372 -136 593
-6 126 -5 133 20 188 27 58 47 66 47 20 0 -14 9 -47 21 -74 45 -104 122 -99
270 20 67 54 80 58 99 35 7 -8 18 -15 25 -15 14 0 35 43 35 74 0 12 14 44 32
72 63 99 108 220 108 295 0 97 -75 202 -187 262 -44 23 -67 28 -150 32 -64 3
-119 0 -160 -9z m307 -53 c192 -111 211 -276 60 -513 -16 -25 -32 -62 -35 -83
-6 -30 -11 -37 -24 -31 -42 17 -52 14 -123 -43 -93 -73 -149 -100 -186 -87
-36 12 -63 70 -70 150 -2 35 -8 64 -11 64 -17 0 -62 -60 -86 -113 -26 -57 -27
-62 -20 -180 18 -317 91 -551 270 -874 86 -154 107 -181 183 -230 28 -18 52
-35 52 -36 0 -1 -28 -3 -63 -5 -34 -1 -90 -9 -125 -18 -35 -9 -65 -14 -67 -13
-1 2 -79 155 -172 339 -175 347 -225 470 -274 683 -14 60 -28 97 -36 97 -15 0
-11 -23 33 -186 35 -131 92 -291 129 -365 l24 -45 -44 -63 c-48 -69 -96 -176
-120 -267 -18 -70 -19 -254 -1 -303 15 -41 43 -58 32 -20 -53 186 -15 388 107
571 18 27 35 48 38 48 8 0 181 -330 219 -418 17 -40 30 -81 28 -90 -5 -24
-119 -88 -213 -119 -73 -25 -93 -27 -230 -27 -134 0 -159 3 -239 28 -49 15
-137 49 -195 76 -58 27 -134 54 -168 61 -35 6 -63 14 -63 18 0 3 16 17 35 30
54 37 197 191 248 268 129 195 191 380 203 611 5 99 10 126 34 177 33 72 79
121 152 162 64 37 123 99 151 162 19 39 22 67 23 192 2 201 32 294 116 362 65
52 127 68 258 65 109 -3 118 -5 170 -35z"/>
<path d="M3532 6738 c-39 -4 -99 -14 -132 -23 -139 -36 -428 -161 -411 -178 7
-7 45 6 113 38 238 110 455 160 606 138 82 -12 180 -42 246 -75 55 -28 232
-66 374 -80 139 -14 257 -2 339 33 36 15 52 18 72 10 150 -59 418 -73 970 -51
363 15 570 -3 663 -58 15 -9 31 -13 35 -8 12 11 -36 43 -92 60 -108 34 -190
37 -740 31 -469 -6 -554 -5 -645 9 -132 20 -217 48 -271 89 -23 18 -48 36 -55
42 -7 5 -17 6 -21 1 -4 -4 14 -28 41 -52 l50 -43 -29 -11 c-149 -57 -502 -25
-707 64 -139 59 -267 79 -406 64z"/>
<path d="M3310 5080 l-35 -7 30 -12 c17 -6 36 -14 43 -16 10 -4 12 -57 10
-242 l-3 -238 -33 -3 c-20 -2 -32 -8 -29 -15 5 -17 189 -17 195 1 2 8 -7 12
-26 12 -18 0 -32 6 -36 16 -3 9 -6 128 -6 265 l0 249 -37 -1 c-21 -1 -54 -5
-73 -9z"/>
<path d="M4328 5083 c-36 -6 -36 -19 -1 -28 15 -3 31 -12 35 -18 4 -7 8 -111
8 -233 0 -233 -2 -244 -47 -244 -14 0 -23 -6 -23 -15 0 -13 15 -15 92 -13 59
2 93 7 95 15 3 7 -8 13 -24 15 -26 3 -28 6 -31 57 -3 53 14 91 43 91 11 0 92
-108 97 -131 2 -7 -7 -15 -20 -18 -52 -13 -23 -26 66 -29 74 -2 92 0 92 11 0
8 -12 17 -27 21 -20 4 -44 29 -87 88 -33 46 -61 90 -63 99 -5 19 91 96 126
101 14 1 26 9 29 16 3 9 -20 12 -92 12 -98 0 -120 -10 -66 -29 17 -5 30 -14
30 -19 0 -10 -113 -112 -124 -112 -3 0 -7 82 -8 183 l-3 182 -35 1 c-19 1 -47
-1 -62 -3z"/>
<path d="M5135 5071 c-61 -27 -121 -99 -141 -167 -59 -203 88 -405 275 -379
l48 6 5 -44 c9 -77 58 -118 115 -96 27 10 63 65 63 97 0 31 -14 27 -27 -8 -22
-58 -67 -30 -87 52 -5 22 1 37 30 75 48 63 64 101 71 177 11 119 -54 243 -152
287 -53 24 -147 24 -200 0z m179 -30 c17 -9 41 -38 55 -66 23 -44 25 -62 26
-160 0 -105 -15 -185 -35 -185 -5 0 -11 9 -15 20 -3 11 -20 33 -36 50 -24 23
-40 30 -69 30 -68 0 -88 -15 -117 -90 -9 -23 -11 -22 -29 25 -14 37 -19 76
-19 150 0 88 3 107 27 157 43 92 125 119 212 69z m-31 -361 c10 -9 21 -36 24
-60 7 -53 -11 -70 -73 -70 -46 0 -70 17 -80 56 -10 41 4 74 39 89 36 16 63 11
90 -15z"/>
<path d="M2750 5070 c0 -5 12 -10 26 -10 14 0 34 -5 45 -10 18 -10 19 -24 19
-245 l0 -235 -22 -4 c-13 -3 -32 -7 -42 -8 -11 -2 -18 -7 -15 -13 2 -6 70 -10
174 -10 159 0 173 2 218 24 118 58 118 184 0 238 l-56 26 36 18 c56 29 80 71
74 127 -4 37 -12 52 -37 73 -17 15 -45 30 -62 33 -52 10 -358 7 -358 -4z m338
-36 c50 -33 53 -130 6 -175 -22 -21 -35 -24 -101 -24 l-75 0 1 83 c0 45 0 93
1 106 0 14 7 27 18 30 30 8 126 -4 150 -20z m5 -245 c42 -21 57 -51 57 -112 0
-92 -44 -122 -170 -115 l-55 3 -3 118 -3 117 76 0 c42 0 86 -5 98 -11z"/>
<path d="M3643 4879 c-33 -9 -83 -60 -83 -84 0 -20 30 -47 48 -43 27 5 39 35
23 60 -12 19 -11 23 5 35 10 7 37 13 60 13 34 0 47 -5 63 -26 23 -29 28 -82 9
-88 -7 -3 -46 -14 -87 -26 -90 -26 -131 -62 -131 -112 0 -53 37 -82 103 -82
43 0 60 5 92 29 22 17 40 25 42 19 16 -47 68 -65 104 -35 l24 20 -31 1 c-20 0
-34 6 -38 16 -3 9 -6 65 -6 124 0 60 -5 120 -11 134 -22 48 -106 68 -186 45z
m135 -197 c10 -98 -126 -181 -158 -96 -21 55 8 93 92 119 55 17 62 15 66 -23z"/>
<path d="M4065 4876 c-91 -41 -131 -163 -86 -262 46 -101 188 -122 246 -36 28
42 31 52 12 52 -8 0 -19 -11 -25 -26 -7 -14 -28 -32 -47 -40 -30 -12 -39 -12
-69 0 -47 20 -66 60 -66 141 0 86 26 141 73 153 52 14 73 1 69 -45 -3 -44 14
-68 42 -57 47 18 38 81 -16 114 -38 23 -90 25 -133 6z"/>
<path d="M5603 4883 c-51 -5 -53 -12 -14 -35 l29 -16 4 -122 3 -122 33 -29
c48 -43 129 -36 171 15 19 23 29 20 33 -11 3 -27 6 -28 57 -28 35 0 56 5 59
13 2 7 -5 12 -15 12 -38 0 -43 18 -43 171 0 81 -3 150 -7 152 -13 8 -113 -5
-113 -14 0 -4 12 -14 28 -21 25 -12 27 -18 30 -83 4 -92 -3 -128 -34 -165 -20
-24 -34 -30 -63 -30 -66 0 -75 20 -81 178 -6 151 0 142 -77 135z"/>
<path d="M6121 4874 c-66 -34 -104 -129 -87 -219 10 -49 68 -112 117 -125 56
-15 121 4 159 47 17 18 30 38 30 43 0 19 -16 10 -38 -20 -31 -42 -90 -56 -138
-34 -40 19 -67 68 -62 113 l3 26 100 2 c159 2 145 -2 138 36 -9 50 -35 98 -65
120 -37 27 -114 32 -157 11z m124 -28 c29 -29 42 -73 28 -95 -8 -12 -30 -17
-92 -19 l-81 -3 0 27 c0 90 89 146 145 90z"/>
<path d="M6530 4883 c-86 -33 -135 -155 -99 -250 29 -77 114 -123 191 -102 41
10 108 66 108 88 0 19 -17 12 -33 -13 -9 -13 -36 -32 -61 -41 -41 -16 -46 -16
-79 0 -40 19 -70 71 -65 113 l3 27 117 1 c65 0 120 2 122 5 10 9 -15 93 -36
122 -33 46 -114 70 -168 50z m105 -37 c29 -29 42 -73 28 -95 -8 -12 -30 -17
-92 -19 -80 -3 -81 -3 -81 22 0 94 88 149 145 92z"/>
<path d="M6828 4883 c-39 -4 -54 -23 -19 -23 43 0 51 -24 51 -154 0 -126 -6
-146 -42 -146 -10 0 -18 -7 -18 -15 0 -13 14 -15 87 -13 55 2 88 7 90 15 3 7
-8 13 -24 15 l-28 3 -3 106 c-3 102 -1 108 23 137 30 36 67 47 103 30 36 -18
51 -64 51 -164 1 -84 -9 -110 -43 -116 -11 -1 -19 -7 -18 -13 1 -6 38 -10 87
-10 49 0 86 4 87 10 1 6 -7 12 -18 13 -37 7 -44 31 -44 148 0 105 -2 114 -25
142 -43 51 -120 49 -176 -4 -29 -28 -34 -26 -41 21 -3 21 -18 25 -80 18z"/>
<path d="M7354 4876 c-42 -19 -64 -52 -64 -99 0 -55 31 -81 121 -101 86 -20
99 -29 99 -67 0 -84 -147 -75 -187 12 -28 60 -46 51 -41 -21 5 -67 11 -78 32
-61 12 10 25 9 65 -6 46 -16 54 -16 92 -3 52 19 81 56 81 105 0 55 -33 83
-118 101 -110 23 -141 57 -93 105 17 17 30 20 66 16 49 -5 75 -24 93 -68 19
-46 30 -34 30 31 0 46 -3 60 -14 60 -8 0 -17 -4 -21 -9 -3 -6 -22 -4 -47 5
-49 17 -54 17 -94 0z"/>
<path d="M5480 4285 c0 -42 -2 -45 -19 -35 -27 14 -47 13 -64 -5 -18 -17 -39
-108 -31 -130 10 -26 42 -17 71 20 33 41 43 44 43 11 0 -14 5 -28 11 -31 16
-11 23 3 10 19 -8 10 -10 41 -5 105 5 66 4 91 -5 91 -6 0 -11 -18 -11 -45z
m-20 -60 c10 -12 10 -18 -1 -32 -26 -36 -63 -73 -71 -73 -13 0 -9 48 6 85 16
38 44 46 66 20z"/>
<path d="M4990 4245 c-19 -30 -38 -55 -42 -55 -4 0 -8 -6 -8 -13 0 -8 -11 -24
-25 -37 -14 -13 -25 -28 -25 -34 0 -5 17 7 38 27 33 32 44 37 84 37 44 0 48
-2 64 -35 9 -20 21 -38 26 -41 19 -12 18 5 -3 40 l-22 37 24 7 24 6 -24 6
c-17 4 -29 19 -43 58 -11 28 -22 52 -26 52 -4 -1 -23 -25 -42 -55z m55 -16 c8
-37 5 -41 -34 -37 l-30 3 20 33 c26 40 36 40 44 1z"/>
<path d="M6400 4270 c0 -25 -4 -30 -24 -30 -12 0 -35 -11 -50 -25 -34 -32 -36
-31 -36 5 0 17 -5 30 -11 30 -7 0 -9 -9 -5 -22 3 -13 6 -47 6 -75 0 -61 15
-70 24 -15 6 43 45 86 73 80 13 -2 20 -15 24 -46 7 -56 28 -77 66 -66 l28 8
-30 4 c-36 4 -55 26 -55 64 0 25 4 28 40 34 49 8 53 24 5 24 -32 0 -35 2 -35
30 0 17 -4 30 -10 30 -5 0 -10 -13 -10 -30z"/>
<path d="M5678 4283 c-27 -4 -27 -4 -22 -75 7 -108 48 -137 114 -82 37 32 32
45 -6 15 -44 -34 -84 -22 -84 25 0 20 7 23 65 29 36 4 65 11 65 16 0 4 -29 5
-65 2 -64 -5 -65 -5 -65 20 0 30 16 37 81 37 27 0 49 5 49 10 0 10 -76 11
-132 3z"/>
<path d="M3610 4248 c0 -18 -7 -55 -15 -82 -17 -56 -18 -69 -7 -62 5 3 15 30
22 61 7 31 17 58 21 61 5 3 21 -15 36 -38 15 -24 29 -45 31 -48 2 -3 23 16 47
43 24 26 46 47 49 47 2 0 8 -21 11 -47 9 -64 15 -83 25 -83 6 0 5 11 0 26 -6
14 -10 52 -10 84 0 55 -18 92 -28 60 -6 -16 -82 -100 -91 -100 -3 0 -21 25
-39 55 -18 30 -37 55 -43 55 -5 0 -9 -15 -9 -32z"/>
<path d="M3907 4256 c-18 -18 -42 -120 -33 -142 8 -21 19 -17 51 16 35 36 45
38 45 6 0 -25 12 -40 24 -29 3 3 2 11 -4 17 -5 7 -6 36 -1 69 9 63 9 62 -35
71 -22 5 -36 2 -47 -8z m47 -12 c9 -3 16 -12 16 -18 0 -16 -59 -96 -71 -96
-14 0 -11 46 5 85 15 36 22 40 50 29z"/>
<path d="M4376 4263 c-31 -31 -48 -144 -24 -159 6 -4 23 6 39 24 16 18 30 32
33 32 2 0 6 -13 10 -30 10 -54 21 -31 21 47 0 67 -3 77 -20 84 -26 10 -50 11
-59 2z m53 -22 c12 -7 10 -15 -7 -43 -26 -42 -60 -74 -69 -65 -7 8 14 86 29
105 12 14 27 15 47 3z"/>
<path d="M4735 4244 c-27 -29 -44 -108 -28 -133 14 -23 51 -25 74 -5 26 24 24
39 -3 20 -28 -20 -54 -20 -62 -1 -7 18 3 45 16 45 16 0 58 49 58 68 0 32 -29
35 -55 6z m28 -26 c-13 -12 -25 -19 -29 -15 -10 10 16 37 34 37 13 0 12 -4 -5
-22z"/>
<path d="M4072 4244 c-36 -25 -26 -65 21 -87 53 -26 47 -41 -13 -35 -35 4 -50
2 -47 -6 6 -19 92 -19 111 -1 24 25 20 30 -35 53 -61 26 -64 51 -6 67 21 6 35
14 31 18 -12 12 -38 8 -62 -9z"/>
<path d="M4223 4248 c-49 -24 -37 -69 25 -95 45 -19 31 -37 -24 -30 -33 3 -44
1 -44 -9 0 -20 94 -19 114 2 21 21 13 32 -40 54 -24 11 -44 26 -44 34 0 18 33
38 54 34 8 -2 16 2 18 7 4 14 -33 16 -59 3z"/>
<path d="M4540 4230 c-15 -16 -30 -43 -34 -60 -6 -30 7 -70 22 -70 11 0 52 29
84 57 l26 25 7 -30 c7 -36 -2 -81 -23 -104 -16 -19 -72 -25 -72 -8 0 6 -7 10
-15 10 -21 0 -19 -17 4 -30 33 -17 61 -11 90 18 22 21 28 37 30 79 3 74 -14
129 -42 137 -38 10 -48 7 -77 -24z m90 -13 c0 -20 -76 -97 -96 -97 -31 0 -7
87 30 112 20 14 66 4 66 -15z"/>
<path d="M5883 4250 c-53 -22 -46 -71 13 -96 51 -22 43 -37 -16 -32 -35 4 -50
2 -47 -6 6 -19 92 -19 111 -1 21 22 13 33 -40 55 -50 22 -57 46 -19 60 14 5
29 9 33 7 4 -1 8 3 10 8 4 13 -18 16 -45 5z"/>
<path d="M6006 4221 c-30 -57 -17 -121 25 -121 22 0 69 38 69 55 0 9 -9 5 -25
-10 -27 -28 -60 -33 -69 -10 -8 22 4 73 21 87 12 10 18 9 30 -7 14 -19 14 -19
11 5 -5 38 -43 39 -62 1z"/>
<path d="M6146 4210 c-20 -51 -21 -109 -2 -116 35 -13 96 47 96 94 0 29 -29
62 -54 62 -18 0 -28 -9 -40 -40z m68 4 c13 -33 5 -63 -20 -83 -42 -33 -58 -28
-51 15 11 66 55 109 71 68z"/>
<path d="M5160 4178 c0 -37 4 -69 9 -72 8 -5 64 69 74 97 6 19 27 -3 27 -29 0
-33 17 -64 35 -64 15 0 48 40 40 49 -3 2 -13 -4 -24 -13 -23 -21 -33 -10 -41
49 -7 53 -26 52 -65 -5 l-30 -45 -3 40 c-6 70 -22 64 -22 -7z"/>
<path d="M6522 4118 c6 -18 28 -21 28 -4 0 9 -7 16 -16 16 -9 0 -14 -5 -12
-12z"/>
<path d="M6610 4114 c0 -17 22 -14 28 4 2 7 -3 12 -12 12 -9 0 -16 -7 -16 -16z"/>
<path d="M6692 4118 c6 -18 28 -21 28 -4 0 9 -7 16 -16 16 -9 0 -14 -5 -12
-12z"/>
<path d="M6780 4114 c0 -17 22 -14 28 4 2 7 -3 12 -12 12 -9 0 -16 -7 -16 -16z"/>
<path d="M6862 4119 c2 -6 8 -10 13 -10 5 0 11 4 13 10 2 6 -4 11 -13 11 -9 0
-15 -5 -13 -11z"/>
</g>
</svg>
